<?xml version="1.0" encoding="UTF-8" standalone="no"?>
<!DOCTYPE svg PUBLIC "-//W3C//DTD SVG 1.1//EN" "http://www.w3.org/Graphics/SVG/1.1/DTD/svg11.dtd">
<!-- Generated by graphviz version 2.40.1 (20161225.0304)
 -->
<!-- Title: G Pages: 1 -->
<svg width="466pt" height="133pt" viewBox="0.00 0.00 465.89 132.80" xmlns="http://www.w3.org/2000/svg" xmlns:xlink="http://www.w3.org/1999/xlink">
<g id="graph0" class="graph" transform="scale(1 1) rotate(0) translate(4 128.8)">
<title>G</title>
<polygon fill="#ffffff" stroke="transparent" points="-4,4 -4,-128.8 461.8882,-128.8 461.8882,4 -4,4"/>
<!-- WebApp -->
<g id="node1" class="node">
<title>WebApp</title>
<polygon fill="none" stroke="#000000" points="301.7123,-124.8 146.3501,-124.8 146.3501,-88.8 301.7123,-88.8 301.7123,-124.8"/>
<text text-anchor="middle" x="224.0312" y="-102.6" font-family="Times,serif" font-size="14.00" fill="#000000">Web Application (Flask)</text>
</g>
<!-- Redis -->
<g id="node2" class="node">
<title>Redis</title>
<ellipse fill="none" stroke="#000000" cx="33.0312" cy="-18" rx="33.0624" ry="18"/>
<text text-anchor="middle" x="33.0312" y="-13.8" font-family="Times,serif" font-size="14.00" fill="#000000">Redis</text>
</g>
<!-- WebApp&#45;&gt;Redis -->
<g id="edge1" class="edge">
<title>WebApp-&gt;Redis</title>
<path fill="none" stroke="#000000" d="M146.1088,-98.6386C106.4095,-92.9735 63.5047,-84.0282 49.0136,-70.8 42.0241,-64.4197 38.0491,-55.0984 35.8029,-46.057"/>
<polygon fill="#000000" stroke="#000000" points="39.2253,-45.3179 33.9329,-36.1396 32.3465,-46.615 39.2253,-45.3179"/>
<text text-anchor="middle" x="107.54" y="-58.2" font-family="Times,serif" font-size="14.00" fill="#000000">Store/Check Articles</text>
</g>
<!-- RSSFeeds -->
<g id="node3" class="node">
<title>RSSFeeds</title>
<polygon fill="none" stroke="#000000" points="211.5894,-36 134.4729,-36 134.4729,0 211.5894,0 211.5894,-36"/>
<text text-anchor="middle" x="173.0312" y="-13.8" font-family="Times,serif" font-size="14.00" fill="#000000">RSS Feeds</text>
</g>
<!-- WebApp&#45;&gt;RSSFeeds -->
<g id="edge2" class="edge">
<title>WebApp-&gt;RSSFeeds</title>
<path fill="none" stroke="#000000" d="M189.7878,-88.701C183.5106,-83.7628 177.7899,-77.8011 174.116,-70.8 170.2218,-63.379 168.9702,-54.526 168.9705,-46.2098"/>
<polygon fill="#000000" stroke="#000000" points="172.4713,-46.291 169.5358,-36.111 165.4823,-45.8997 172.4713,-46.291"/>
<text text-anchor="middle" x="214.4888" y="-58.2" font-family="Times,serif" font-size="14.00" fill="#000000">Fetch Articles</text>
</g>
<!-- User -->
<g id="node4" class="node">
<title>User</title>
<ellipse fill="none" stroke="#000000" cx="332.0312" cy="-18" rx="29.0318" ry="18"/>
<text text-anchor="middle" x="332.0312" y="-13.8" font-family="Times,serif" font-size="14.00" fill="#000000">User</text>
</g>
<!-- WebApp&#45;&gt;User -->
<g id="edge3" class="edge">
<title>WebApp-&gt;User</title>
<path fill="none" stroke="#000000" d="M239.8456,-88.659C249.6216,-77.9645 262.7362,-64.5131 275.6714,-54 283.6958,-47.4781 292.9584,-41.1369 301.6263,-35.6401"/>
<polygon fill="#000000" stroke="#000000" points="303.6957,-38.4758 310.3671,-30.2452 300.0191,-32.5191 303.6957,-38.4758"/>
<text text-anchor="middle" x="321.7111" y="-58.2" font-family="Times,serif" font-size="14.00" fill="#000000">Display Articles</text>
</g>
<!-- User&#45;&gt;WebApp -->
<g id="edge4" class="edge">
<title>User-&gt;WebApp</title>
<path fill="none" stroke="#000000" d="M351.3316,-31.8534C364.1302,-42.7433 376.9022,-58.1359 367.0312,-70.8 359.3546,-80.6486 336.7642,-88.2189 311.7406,-93.817"/>
<polygon fill="#000000" stroke="#000000" points="310.7368,-90.4517 301.676,-95.9428 312.1835,-97.3006 310.7368,-90.4517"/>
<text text-anchor="middle" x="413.9597" y="-58.2" font-family="Times,serif" font-size="14.00" fill="#000000">Open Web App</text>
</g>
</g>
</svg>